<svg width="100" height="100" viewBox="0 0 100 100" fill="none" xmlns="http://www.w3.org/2000/svg">
<path fill-rule="evenodd" clip-rule="evenodd" d="M4 15H5V84H4V15ZM20 15H21V84H20V15ZM36 15H35V84H36V15ZM50 15H51V84H50V15ZM66 15H65V84H66V15ZM80 15H81V84H80V15ZM96 15H95V84H96V15Z" fill="white" fill-opacity="0.1"/>
<path d="M36 29C36 27.8954 35.1046 27 34 27L4 27L4 33L34 33C35.1046 33 36 32.1046 36 31L36 29Z" fill="#2F9DC6"/>
<path d="M19 19C20.1046 19 21 19.8954 21 21L21 23C21 24.1046 20.1046 25 19 25L4 25L4 19L19 19Z" fill="#6CE5E8"/>
<path d="M60 52.5C60 51.3954 59.3245 50.5 58.4912 50.5L4 50.5L4 56.5L58.4912 56.5C59.3245 56.5 60 55.6046 60 54.5L60 52.5Z" fill="#2F9DC6"/>
<path d="M49.6512 42.5C50.3961 42.5 51 43.3954 51 44.5L51 46.5C51 47.6046 50.3961 48.5 49.6512 48.5L4 48.5L4 42.5L49.6512 42.5Z" fill="#6CE5E8"/>
<path d="M96 76C96 74.8954 95.1046 74 94 74L4 74L4 80L94 80C95.1046 80 96 79.1046 96 78L96 76Z" fill="#2F9DC6"/>
<path d="M79.1905 66C80.1898 66 81 66.8954 81 68L81 70C81 71.1046 80.1898 72 79.1905 72L4 72L4 66L79.1905 66Z" fill="#6CE5E8"/>
</svg>
