<svg id="Layer_1" data-name="Layer 1" xmlns="http://www.w3.org/2000/svg" viewBox="0 0 122.88 97.52"><defs><style>.cls-1{fill-rule:evenodd;}</style></defs><title>eye-scanning</title><path class="cls-1" d="M61.44,28.68A20.08,20.08,0,1,1,41.36,48.76,20.08,20.08,0,0,1,61.44,28.68ZM22.3,91.37a3.09,3.09,0,0,1,3.08,3.08,3.07,3.07,0,0,1-3.08,3.07H3.87A3.07,3.07,0,0,1,.8,94.45V76.3a3.08,3.08,0,0,1,5.25-2.17l.07.08A3.08,3.08,0,0,1,7,76.3V91.37ZM22.3,0a3.11,3.11,0,0,1,2.18.9l.07.08A3.07,3.07,0,0,1,22.3,6.15H7V21.22a3.08,3.08,0,0,1-6.15,0V3.08A3,3,0,0,1,1.7.91,3,3,0,0,1,3.87,0Zm78.28,6.15A3.07,3.07,0,0,1,97.5,3.08,3.09,3.09,0,0,1,100.58,0H119a3.1,3.1,0,0,1,2.17.9,3.07,3.07,0,0,1,.9,2.18V21.22A3.07,3.07,0,0,1,119,24.29a3.09,3.09,0,0,1-3.08-3.07V6.15Zm0,91.37a3.07,3.07,0,0,1-3.08-3.07,3.09,3.09,0,0,1,3.08-3.08h15.35V76.3A3.07,3.07,0,0,1,119,73.23a3.07,3.07,0,0,1,3.07,3.07V94.45A3.07,3.07,0,0,1,119,97.52ZM1,46.24a94.65,94.65,0,0,1,9.15-9.63c14.34-13,31.36-20,48.91-20.37s35.47,5.9,51.7,19.29A108.5,108.5,0,0,1,122,46.27a3.56,3.56,0,0,1,.23,4.51,73.18,73.18,0,0,1-14.07,15A71.92,71.92,0,0,1,63.35,81.29a79,79,0,0,1-45.8-14.57A82.23,82.23,0,0,1,.77,50.87,3.55,3.55,0,0,1,1,46.24Zm13.94-4.38a86.45,86.45,0,0,0-6.7,6.82A74.74,74.74,0,0,0,21.64,60.91,72,72,0,0,0,63.33,74.2a64.88,64.88,0,0,0,40.37-14,65.76,65.76,0,0,0,11-11.25A100.31,100.31,0,0,0,106.22,41C91.33,28.74,75,23,59.15,23.33S27.93,30,14.89,41.86Zm46.55-.44a7.35,7.35,0,1,1-7.35,7.34,7.34,7.34,0,0,1,7.35-7.34Z"/></svg>