<svg width="100" height="100" viewBox="0 0 100 100" fill="none" xmlns="http://www.w3.org/2000/svg">
<path d="M20.5 28C18.131 28 16.2105 29.9308 16.2105 32.3125V33.75C16.2105 36.1317 18.131 38.0625 20.5 38.0625C22.869 38.0625 24.7895 36.1317 24.7895 33.75V32.3125C24.7895 29.9308 22.869 28 20.5 28Z" fill="#6CE5E8"/>
<path d="M16.0576 47.7634C16.0812 47.5971 15.8505 47.5321 15.7846 47.6865L12.6638 55.0075C12.2132 56.0646 11.1793 56.75 10.0353 56.75H8.71569C8.20244 56.75 7.8564 56.2224 8.05857 55.7481L11.921 46.6875L13.3426 43.1145C14.2111 40.9315 16.3142 39.5 18.6528 39.5H22.3472C24.6858 39.5 26.7889 40.9315 27.6574 43.1145L29.079 46.6875L32.9414 55.7481C33.1436 56.2224 32.7976 56.75 32.2843 56.75H30.9647C29.8207 56.75 28.7868 56.0646 28.3362 55.0075L25.2154 47.6865C25.1495 47.5321 24.9188 47.5971 24.9424 47.7634L26.2193 56.75L27.5846 73.2216C27.6194 73.6406 27.2905 74 26.8722 74H25.7822C24.3843 74 23.1912 72.9839 22.9614 71.5976L20.641 57.6008C20.6145 57.4406 20.3855 57.4406 20.359 57.6008L18.0386 71.5976C17.8088 72.9839 16.6157 74 15.2178 74H14.1278C13.7095 74 13.3806 73.6406 13.4154 73.2216L14.7807 56.75L16.0576 47.7634Z" fill="#6CE5E8"/>
<path d="M79.5 28C77.131 28 75.2105 29.9308 75.2105 32.3125V33.75C75.2105 36.1317 77.131 38.0625 79.5 38.0625C81.869 38.0625 83.7895 36.1317 83.7895 33.75V32.3125C83.7895 29.9308 81.869 28 79.5 28Z" fill="#494F56"/>
<path d="M75.0576 47.7634C75.0812 47.5971 74.8505 47.5321 74.7846 47.6865L71.6638 55.0075C71.2132 56.0646 70.1793 56.75 69.0353 56.75H67.7157C67.2024 56.75 66.8564 56.2224 67.0586 55.7481L70.921 46.6875L72.3426 43.1145C73.2111 40.9315 75.3142 39.5 77.6528 39.5H81.3472C83.6858 39.5 85.7889 40.9315 86.6574 43.1145L88.079 46.6875L91.9414 55.7481C92.1436 56.2224 91.7976 56.75 91.2843 56.75H89.9647C88.8207 56.75 87.7868 56.0646 87.3362 55.0075L84.2154 47.6865C84.1495 47.5321 83.9188 47.5971 83.9424 47.7634L85.2193 56.75L86.5846 73.2216C86.6194 73.6406 86.2905 74 85.8722 74H84.7822C83.3843 74 82.1912 72.9839 81.9614 71.5976L79.641 57.6008C79.6145 57.4406 79.3855 57.4406 79.359 57.6008L77.0386 71.5976C76.8088 72.9839 75.6157 74 74.2178 74H73.1278C72.7095 74 72.3806 73.6406 72.4154 73.2216L73.7807 56.75L75.0576 47.7634Z" fill="#494F56"/>
<path d="M49.5 28C47.131 28 45.2105 29.9308 45.2105 32.3125V33.75C45.2105 36.1317 47.131 38.0625 49.5 38.0625C51.869 38.0625 53.7895 36.1317 53.7895 33.75V32.3125C53.7895 29.9308 51.869 28 49.5 28Z" fill="#6CE5E8"/>
<path d="M45.0576 47.7634C45.0812 47.5971 44.8505 47.5321 44.7846 47.6865L41.6638 55.0075C41.2132 56.0646 40.1793 56.75 39.0353 56.75H37.7157C37.2024 56.75 36.8564 56.2224 37.0586 55.7481L40.921 46.6875L42.3426 43.1145C43.2111 40.9315 45.3142 39.5 47.6528 39.5H51.3472C53.6858 39.5 55.7889 40.9315 56.6574 43.1145L58.079 46.6875L61.9414 55.7481C62.1436 56.2224 61.7976 56.75 61.2843 56.75H59.9647C58.8207 56.75 57.7868 56.0646 57.3362 55.0075L54.2154 47.6865C54.1495 47.5321 53.9188 47.5971 53.9424 47.7634L55.2193 56.75L56.5846 73.2216C56.6194 73.6406 56.2905 74 55.8722 74H54.7822C53.3843 74 52.1912 72.9839 51.9614 71.5976L49.641 57.6008C49.6145 57.4406 49.3855 57.4406 49.359 57.6008L47.0386 71.5976C46.8088 72.9839 45.6157 74 44.2178 74H43.1278C42.7095 74 42.3806 73.6406 42.4154 73.2216L43.7807 56.75L45.0576 47.7634Z" fill="#6CE5E8"/>
</svg>
