<svg width="100" height="100" viewBox="0 0 100 100" fill="none" xmlns="http://www.w3.org/2000/svg">
<path fill-rule="evenodd" clip-rule="evenodd" d="M100 14H0V15H100V14ZM0 28H100V29H0V28ZM100 42H0V43H100V42ZM0 56H100V57H0V56ZM100 70H0V71H100V70ZM100 84H0V85H100V84Z" fill="white" fill-opacity="0.1"/>
<path d="M9 83L29 57.5L50.1426 67.5L70.9709 36.7734L90.9724 39.334" stroke="#6CE5E8" stroke-width="3" stroke-linecap="round" stroke-linejoin="round"/>
<path fill-rule="evenodd" clip-rule="evenodd" d="M9 86C10.6569 86 12 84.6569 12 83C12 81.3431 10.6569 80 9 80C7.34315 80 6 81.3431 6 83C6 84.6569 7.34315 86 9 86Z" fill="#6CE5E8"/>
<path fill-rule="evenodd" clip-rule="evenodd" d="M29 60C30.6569 60 32 58.6569 32 57C32 55.3431 30.6569 54 29 54C27.3431 54 26 55.3431 26 57C26 58.6569 27.3431 60 29 60Z" fill="#6CE5E8"/>
<path fill-rule="evenodd" clip-rule="evenodd" d="M50 70C51.6569 70 53 68.6569 53 67C53 65.3431 51.6569 64 50 64C48.3431 64 47 65.3431 47 67C47 68.6569 48.3431 70 50 70Z" fill="#6CE5E8"/>
<path fill-rule="evenodd" clip-rule="evenodd" d="M91 42C92.6569 42 94 40.6569 94 39C94 37.3431 92.6569 36 91 36C89.3431 36 88 37.3431 88 39C88 40.6569 89.3431 42 91 42Z" fill="#6CE5E8"/>
<path fill-rule="evenodd" clip-rule="evenodd" d="M71 40C72.6569 40 74 38.6569 74 37C74 35.3431 72.6569 34 71 34C69.3431 34 68 35.3431 68 37C68 38.6569 69.3431 40 71 40Z" fill="#6CE5E8"/>
</svg>
