<svg width="100" height="100" viewBox="0 0 100 100" fill="none" xmlns="http://www.w3.org/2000/svg">
<path d="M50 10C31.9309 10 16.1053 22.1137 11.3875 39.5561L50 50V10Z" fill="#30356F"/>
<path d="M11.9577 37.6392C6.37407 54.8239 13.0045 73.6183 28.1353 83.4952L50 49.9998L11.9577 37.6392Z" fill="#2E5791"/>
<path d="M26.4888 82.3607C41.1071 92.9815 61.0305 92.4833 75.0996 81.1452L50.0002 50L26.4888 82.3607Z" fill="#2A7AAE"/>
<path d="M73.5112 82.3606C88.1295 71.7399 93.8123 52.6377 87.3767 35.7534L49.9998 50L73.5112 82.3606Z" fill="#2F9DC6"/>
<path d="M88.0425 37.6393C82.6419 21.0181 67.0759 9.82726 49.6002 10.002L50.0002 50L88.0425 37.6393Z" fill="#6CE5E8"/>
</svg>
