<svg width="100" height="100" viewBox="0 0 100 100" fill="none" xmlns="http://www.w3.org/2000/svg">
<path fill-rule="evenodd" clip-rule="evenodd" d="M100 14H0V15H100V14ZM0 28H100V29H0V28ZM100 42H0V43H100V42ZM0 56H100V57H0V56ZM100 70H0V71H100V70ZM100 84H0V85H100V84Z" fill="white" fill-opacity="0.1"/>
<path d="M25 56C23.8954 56 23 56.8954 23 58V85H31V58C31 56.8954 30.1046 56 29 56H25Z" fill="#2F9DC6"/>
<path d="M13 72C13 70.8954 13.8954 70 15 70H19C20.1046 70 21 70.8954 21 72V85H13V72Z" fill="#6CE5E8"/>
<path d="M53 42C51.8954 42 51 42.6755 51 43.5088V85H59V43.5088C59 42.6755 58.1046 42 57 42H53Z" fill="#2F9DC6"/>
<path d="M41 57.3488C41 56.6039 41.8954 56 43 56H47C48.1046 56 49 56.6039 49 57.3488V85H41V57.3488Z" fill="#6CE5E8"/>
<path d="M81 14C79.8954 14 79 14.8954 79 16V85H87V16C87 14.8954 86.1046 14 85 14H81Z" fill="#2F9DC6"/>
<path d="M69 29.8095C69 28.8102 69.8954 28 71 28H75C76.1046 28 77 28.8102 77 29.8095V85H69V29.8095Z" fill="#6CE5E8"/>
</svg>
