<svg width="100" height="100" viewBox="0 0 100 100" fill="none" xmlns="http://www.w3.org/2000/svg">
<path fill-rule="evenodd" clip-rule="evenodd" d="M91.5 71V84H91.75V85L91.5 85H90.5H71.5H70.5H50.5H49.5H29.5H28.5H9.5L8.75001 85L8.5 85L8.5 14H9.5V14L28.5 14H29.5H49.5H50.5H70.5H71.5H90.5L91.5 14L91.75 14V15H91.5V28H91.75V29H91.5V42H91.75V43H91.5V56H91.75V57H91.5V70H91.75V71H91.5ZM90.5 71V84H71.5V71H90.5ZM90.5 70V57H71.5V70H90.5ZM70.5 70V57H50.5V70H70.5ZM50.5 71V84H70.5V71H50.5ZM49.5 71V84H29.5V71H49.5ZM49.5 70V57H29.5L29.5 70H49.5ZM28.5 70L28.5 57H9.5L9.5 70H28.5ZM9.5 71L9.5 84H28.5V71H9.5ZM9.5 56H28.5V43H9.5L9.5 56ZM9.5 42H28.5L28.5 29H9.5L9.5 42ZM9.5 28H28.5V15H9.5L9.5 28ZM29.5 15V28H49.5V15H29.5ZM50.5 15V28H70.5V15H50.5ZM71.5 15V28H90.5V15H71.5ZM90.5 29H71.5V42H90.5V29ZM90.5 43H71.5L71.5 56H90.5V43ZM70.5 56L70.5 43H50.5L50.5 56H70.5ZM49.5 56L49.5 43H29.5V56H49.5ZM29.5 42H49.5V29H29.5L29.5 42ZM50.5 29V42H70.5V29H50.5Z" fill="white" fill-opacity="0.1"/>
<path fill-rule="evenodd" clip-rule="evenodd" d="M29 33C30.6569 33 32 31.6569 32 30C32 28.3431 30.6569 27 29 27C27.3431 27 26 28.3431 26 30C26 31.6569 27.3431 33 29 33Z" fill="#6CE5E8"/>
<path fill-rule="evenodd" clip-rule="evenodd" d="M9 62C10.6569 62 12 60.6569 12 59C12 57.3431 10.6569 56 9 56C7.34315 56 6 57.3431 6 59C6 60.6569 7.34315 62 9 62Z" fill="#6CE5E8"/>
<path fill-rule="evenodd" clip-rule="evenodd" d="M9 71C10.6569 71 12 69.6569 12 68C12 66.3431 10.6569 65 9 65C7.34315 65 6 66.3431 6 68C6 69.6569 7.34315 71 9 71Z" fill="#2F9DC6"/>
<path fill-rule="evenodd" clip-rule="evenodd" d="M9 86C10.6569 86 12 84.6569 12 83C12 81.3431 10.6569 80 9 80C7.34315 80 6 81.3431 6 83C6 84.6569 7.34315 86 9 86Z" fill="#2A7AAE"/>
<path fill-rule="evenodd" clip-rule="evenodd" d="M29 68C30.6569 68 32 66.6569 32 65C32 63.3431 30.6569 62 29 62C27.3431 62 26 63.3431 26 65C26 66.6569 27.3431 68 29 68Z" fill="#2A7AAE"/>
<path fill-rule="evenodd" clip-rule="evenodd" d="M29 81C30.6569 81 32 79.6569 32 78C32 76.3431 30.6569 75 29 75C27.3431 75 26 76.3431 26 78C26 79.6569 27.3431 81 29 81Z" fill="#2F9DC6"/>
<path fill-rule="evenodd" clip-rule="evenodd" d="M50 51C51.6569 51 53 49.6569 53 48C53 46.3431 51.6569 45 50 45C48.3431 45 47 46.3431 47 48C47 49.6569 48.3431 51 50 51Z" fill="#6CE5E8"/>
<path fill-rule="evenodd" clip-rule="evenodd" d="M50 61C51.6569 61 53 59.6569 53 58C53 56.3431 51.6569 55 50 55C48.3431 55 47 56.3431 47 58C47 59.6569 48.3431 61 50 61Z" fill="#2F9DC6"/>
<path fill-rule="evenodd" clip-rule="evenodd" d="M50 39C51.6569 39 53 37.6569 53 36C53 34.3431 51.6569 33 50 33C48.3431 33 47 34.3431 47 36C47 37.6569 48.3431 39 50 39Z" fill="#2A7AAE"/>
<path fill-rule="evenodd" clip-rule="evenodd" d="M71 33C72.6569 33 74 31.6569 74 30C74 28.3431 72.6569 27 71 27C69.3431 27 68 28.3431 68 30C68 31.6569 69.3431 33 71 33Z" fill="#6CE5E8"/>
<path fill-rule="evenodd" clip-rule="evenodd" d="M91 31C92.6569 31 94 29.6569 94 28C94 26.3431 92.6569 25 91 25C89.3431 25 88 26.3431 88 28C88 29.6569 89.3431 31 91 31Z" fill="#6CE5E8"/>
<path fill-rule="evenodd" clip-rule="evenodd" d="M91 18C92.6569 18 94 16.6569 94 15C94 13.3431 92.6569 12 91 12C89.3431 12 88 13.3431 88 15C88 16.6569 89.3431 18 91 18Z" fill="#2F9DC6"/>
<path fill-rule="evenodd" clip-rule="evenodd" d="M91 42C92.6569 42 94 40.6569 94 39C94 37.3431 92.6569 36 91 36C89.3431 36 88 37.3431 88 39C88 40.6569 89.3431 42 91 42Z" fill="#2A7AAE"/>
<path fill-rule="evenodd" clip-rule="evenodd" d="M71 47C72.6569 47 74 45.6569 74 44C74 42.3431 72.6569 41 71 41C69.3431 41 68 42.3431 68 44C68 45.6569 69.3431 47 71 47Z" fill="#2A7AAE"/>
<path fill-rule="evenodd" clip-rule="evenodd" d="M71 73C72.6569 73 74 71.6569 74 70C74 68.3431 72.6569 67 71 67C69.3431 67 68 68.3431 68 70C68 71.6569 69.3431 73 71 73Z" fill="#2F9DC6"/>
</svg>
