<svg width="100" height="100" viewBox="0 0 100 100" fill="none" xmlns="http://www.w3.org/2000/svg">
<path d="M49.7578 10C31.7954 10 16.0634 22.1137 11.3735 39.5561L30.5656 44.778C32.9106 36.0569 40.7766 30 49.7578 30V10Z" fill="#30356F"/>
<path d="M11.9404 37.6392C6.38973 54.8239 12.981 73.6183 28.0224 83.4952L38.8901 66.7475C31.3694 61.8091 28.0738 52.4119 30.8491 43.8195L11.9404 37.6392Z" fill="#2E5791"/>
<path d="M26.3854 82.3609C40.9173 92.9816 60.723 92.4834 74.709 81.1453L62.2334 65.5728C55.2404 71.2418 45.3376 71.4909 38.0717 66.1805L26.3854 82.3609Z" fill="#2A7AAE"/>
<path d="M73.1301 82.3606C87.662 71.7399 93.3113 52.6377 86.9137 35.7534L68.3357 42.8767C71.5345 51.3188 68.7098 60.8699 61.4439 66.1803L73.1301 82.3606Z" fill="#2F9DC6"/>
<path d="M87.5752 37.6393C82.2065 21.0181 66.7325 9.82726 49.3601 10.002L49.5589 30.001C58.2451 29.9136 65.9821 35.5091 68.6665 43.8197L87.5752 37.6393Z" fill="#6CE5E8"/>
</svg>
